# xmcd
#
# Track frame offsets: 
#        150
#        22602
#        40897
#        61110
#        80565
#        101832
#        122047
#        142992
#        158830
#        180145
#
# Disc length: 2708 seconds
#
# Revision: 2
# Processed by: cddbd v1.5.2PL0 Copyright (c) Steve Scherf et al.
# Submitted via: ExactAudioCopy v1.0b1
#
DISCID=6f0a920a
DTITLE=辛曉琪 - 愛上他不只是我的錯
DYEAR=1996
DGENRE=Pop
TTITLE0=愛上他不只是我的錯
TTITLE1=隱隱寂寞
TTITLE2=看穿
TTITLE3=多情最累
TTITLE4=嫉妒
TTITLE5=忐忑
TTITLE6=味道II–夢外
TTITLE7=滿心歡喜
TTITLE8=恩愛
TTITLE9=情婦
EXTD=
EXTT0=
EXTT1=
EXTT2=
EXTT3=
EXTT4=
EXTT5=
EXTT6=
EXTT7=
EXTT8=
EXTT9=
PLAYORDER=
